<svg id="Layer_1" data-name="Layer 1" xmlns="http://www.w3.org/2000/svg" viewBox="0 0 341.17 126.97"><defs><style>.cls-1{fill:#ffce02;}.cls-2{fill:#3b3b3c;}</style></defs><path class="cls-1" d="M213.51,89.81a3.62,3.62,0,1,0,3.61,3.62A3.61,3.61,0,0,0,213.51,89.81Z" transform="translate(-17.88 -14.76)"/><path class="cls-1" d="M281.94,89.81a3.62,3.62,0,1,0,3.62,3.62A3.62,3.62,0,0,0,281.94,89.81Z" transform="translate(-17.88 -14.76)"/><circle class="cls-1" cx="27.03" cy="100.17" r="11.38"/><path class="cls-1" d="M310.64,72.18V42q0-11.72,6-17.81t16.63-6.09q10.68,0,16.61,6t5.94,17.43V72.18H343.92V59.78H322.44v12.4Zm11.8-30.55v7.71h21.48V42q0-6.34-2.87-9.87A10.77,10.77,0,0,0,325.28,32Q322.45,35.35,322.44,41.63Z" transform="translate(-17.88 -14.76)"/><path class="cls-2" d="M105.85,18.28h-.19A27,27,0,0,0,83.35,60.56H75.59V72.31l30.07,0h.19a27,27,0,0,0,0-54Zm.45,42.28h-.91a15.13,15.13,0,1,1,1.31,0Z" transform="translate(-17.88 -14.76)"/><circle class="cls-1" cx="87.82" cy="30.48" r="11.38"/><circle class="cls-1" cx="27.03" cy="30.48" r="11.38"/><path class="cls-2" d="M151.37,89.19a4.82,4.82,0,0,1,1.5,3.77,5.08,5.08,0,0,1-1.45,3.81A6.16,6.16,0,0,1,147,98.18h-3.43V87.84h3.55A6.15,6.15,0,0,1,151.37,89.19ZM151.11,93c0-2.36-1.36-3.55-4.07-3.55h-1.75v7.09h1.94a4.18,4.18,0,0,0,2.88-.9A3.36,3.36,0,0,0,151.11,93Z" transform="translate(-17.88 -14.76)"/><path class="cls-2" d="M163.86,91.2a3,3,0,0,1-2.23,3.22l2.71,3.76h-2.22l-2.47-3.48h-2.3v3.48h-1.74V87.84h3.84a5.52,5.52,0,0,1,3.39.8A3,3,0,0,1,163.86,91.2Zm-2.32,1.46a1.81,1.81,0,0,0,.53-1.47,1.58,1.58,0,0,0-.54-1.39,3.69,3.69,0,0,0-2-.38h-2.22v3.7h2.18A3.18,3.18,0,0,0,161.54,92.66Z" transform="translate(-17.88 -14.76)"/><path class="cls-2" d="M174.34,87.84v1.64h-5.52v2.74h5v1.55h-5v2.77h5.7v1.64h-7.44V87.84Z" transform="translate(-17.88 -14.76)"/><path class="cls-2" d="M180.16,95.83l-1,2.35h-1.86l4.55-10.34h1.87l4.55,10.34h-1.86l-1-2.35Zm4.46-1.61L182.75,90l-1.88,4.27Z" transform="translate(-17.88 -14.76)"/><path class="cls-2" d="M192.72,98.18H191V87.84h2.73l3.12,6.49,3.12-6.49h2.71V98.18H200.9V90.1l-3.61,7.18h-1l-3.59-7.18Z" transform="translate(-17.88 -14.76)"/><path class="cls-2" d="M226.12,98.18h-1.74V87.84h2.72l3.12,6.49,3.12-6.49h2.71V98.18H234.3V90.1l-3.61,7.18h-1l-3.6-7.18Z" transform="translate(-17.88 -14.76)"/><path class="cls-2" d="M241.56,95.83l-1,2.35h-1.86l4.55-10.34h1.86l4.56,10.34h-1.86l-1-2.35ZM246,94.22,244.15,90l-1.88,4.27Z" transform="translate(-17.88 -14.76)"/><path class="cls-2" d="M252.26,87.84H254v5l4.73-5H261l-4.16,4.53L261,98.18H259l-3.43-4.53L254,95.28v2.9h-1.75Z" transform="translate(-17.88 -14.76)"/><path class="cls-2" d="M270.9,87.84v1.64h-5.52v2.74h5v1.55h-5v2.77h5.7v1.64h-7.44V87.84Z" transform="translate(-17.88 -14.76)"/><path class="cls-2" d="M301.06,91.2a3,3,0,0,1-2.23,3.22l2.7,3.76h-2.21l-2.47-3.48h-2.3v3.48h-1.74V87.84h3.84a5.52,5.52,0,0,1,3.39.8A3,3,0,0,1,301.06,91.2Zm-2.32,1.46a1.84,1.84,0,0,0,.53-1.47,1.55,1.55,0,0,0-.55-1.39,3.62,3.62,0,0,0-2-.38h-2.22v3.7h2.18A3.18,3.18,0,0,0,298.74,92.66Z" transform="translate(-17.88 -14.76)"/><path class="cls-2" d="M312,87.84v1.64H306.5v2.74h5v1.55h-5v2.77h5.7v1.64h-7.45V87.84Z" transform="translate(-17.88 -14.76)"/><path class="cls-2" d="M322.4,88.74a3.42,3.42,0,0,1,1.08,2.78,3.29,3.29,0,0,1-1.1,2.75,5.39,5.39,0,0,1-3.39.88h-1.83v3h-1.74V87.84H319A5.33,5.33,0,0,1,322.4,88.74ZM321.16,93a2.28,2.28,0,0,0,.53-1.63,1.66,1.66,0,0,0-.67-1.51,3.78,3.78,0,0,0-2.08-.45h-1.78v4.14h2A2.7,2.7,0,0,0,321.16,93Z" transform="translate(-17.88 -14.76)"/><path class="cls-2" d="M334,87.84v1.64h-5.52v2.74h5v1.55h-5v2.77h5.7v1.64H326.7V87.84Z" transform="translate(-17.88 -14.76)"/><path class="cls-2" d="M339,95.83l-1,2.35h-1.86l4.55-10.34h1.87L347,98.18h-1.86l-1-2.35Zm4.46-1.61L341.53,90l-1.87,4.27Z" transform="translate(-17.88 -14.76)"/><path class="cls-2" d="M352.66,89.44v8.74h-1.75V89.44h-3.13v-1.6h8v1.6Z" transform="translate(-17.88 -14.76)"/><polygon class="cls-2" points="110.4 84.54 86.26 84.54 57.71 84.54 57.71 78.77 57.71 73 86.26 73 110.4 73 114.81 78.77 110.4 84.54"/><path class="cls-1" d="M166.6,72.18h-23V19.52H164a29.73,29.73,0,0,1,9.23,1.28,13.33,13.33,0,0,1,5.84,3.47,13.61,13.61,0,0,1,3.54,9.19q0,6.18-4,9.19A15.77,15.77,0,0,1,176.77,44c-.35.17-1,.46-1.88.86a13.92,13.92,0,0,1,7.8,4.41,12.3,12.3,0,0,1,2.9,8.33,14.2,14.2,0,0,1-3.77,9.72Q177.46,72.18,166.6,72.18ZM155.3,40.84h5.57a18.94,18.94,0,0,0,7.27-1.05q2.38-1.07,2.38-4.56t-2.19-4.63c-1.45-.76-3.91-1.13-7.38-1.13H155.3Zm0,21.4h8.06q5.05,0,7.57-1.25c1.68-.82,2.53-2.46,2.53-4.89s-.9-4-2.68-4.82-4.63-1.17-8.55-1.17H155.3Z" transform="translate(-17.88 -14.76)"/><path class="cls-1" d="M204.36,62.09V72.18H192.6V62.09h0V29.62h0V19.52h11.76v10.1h0V62.09Z" transform="translate(-17.88 -14.76)"/><path class="cls-1" d="M213,72.18V19.52h11.76V61.71h22.45V72.18Z" transform="translate(-17.88 -14.76)"/><path class="cls-1" d="M295.29,26.41q7.53,6.9,7.54,19.18T295.48,65q-7.35,7.16-22.41,7.15h-18V19.52h18.61Q287.76,19.52,295.29,26.41Zm-8.62,31.31Q291,53.66,291,45.89T286.67,34q-4.34-4.19-13.3-4.18h-6.56v32h7.46Q282.34,61.79,286.67,57.72Z" transform="translate(-17.88 -14.76)"/><path class="cls-2" d="M44.91,18.46a27,27,0,0,0,0,54.06H56.53V60.77H44.91A15.28,15.28,0,1,1,60.19,45.49V60.56h0V102h0v12.68A15.28,15.28,0,1,1,44.91,99.43H56.53V87.68H44.91a27,27,0,1,0,27,27V45.49A27.07,27.07,0,0,0,44.91,18.46Z" transform="translate(-17.88 -14.76)"/><path class="cls-2" d="M358.07,15.74a3.18,3.18,0,0,1,1,2.35,3.34,3.34,0,1,1-6.68,0,3.26,3.26,0,0,1,1-2.36,3.32,3.32,0,0,1,4.72,0Zm-.28,4.44a2.86,2.86,0,0,0,.86-2.08A2.81,2.81,0,0,0,357.8,16a2.76,2.76,0,0,0-2.07-.86,2.83,2.83,0,0,0-2.08.86,2.88,2.88,0,0,0-.84,2.08,2.85,2.85,0,0,0,.84,2.07,2.75,2.75,0,0,0,2.06.86A2.8,2.8,0,0,0,357.79,20.18Zm-.46-2.72a1,1,0,0,1-.79,1.12l1,1.31h-.77l-.87-1.21h-.79v1.21h-.63V16.28h1.36a1.88,1.88,0,0,1,1.17.28A1.08,1.08,0,0,1,357.33,17.46Zm-.81.51a.64.64,0,0,0,.19-.52.59.59,0,0,0-.19-.49,1.27,1.27,0,0,0-.69-.14h-.76v1.3h.74A1.2,1.2,0,0,0,356.52,18Z" transform="translate(-17.88 -14.76)"/></svg>